# xmcd
#
# Track frame offsets: 
#        150
#        50516
#        73111
#        119706
#        143321
#        155388
#        161817
#        179917
#        194067
#
# Disc length: 3611 seconds
#
# Revision: 0
# Processed by: cddbd v1.5.2PL0 Copyright (c) Steve Scherf et al.
# Submitted via: ExactAudioCopy v0.95b3
#
DISCID=8b0e1909
DTITLE=Jimi Hendrix  - Studio Sessions Vol.2 (Voodoo Chile Records  Bo
DTITLE=x-Set) - Disc 1
DYEAR=1900
DGENRE=
TTITLE0=It's Too Bad
TTITLE1=Slow Version
TTITLE2=Ezy Rider\\Star Spangled Banner
TTITLE3=Olympic Blues Jam
TTITLE4=Message To Love
TTITLE5=Gypsy Blood
TTITLE6=Valleys Of Neptune(Guitar)
TTITLE7=Valleys Of Neptune(Piano)
TTITLE8=Jimi\\Jimmy Jam
EXTD=
EXTT0=
EXTT1=
EXTT2=
EXTT3=
EXTT4=
EXTT5=
EXTT6=
EXTT7=
EXTT8=
PLAYORDER=
